<?xml version="1.0" encoding="UTF-8"?>
<svg version="1.1" xmlns="http://www.w3.org/2000/svg" width="799" height="533">
<path d="M0 0 C11.28634945 10.69233106 17.47024894 25.52096517 17.92578125 40.9453125 C17.94432229 43.23430324 17.94774395 45.52345709 17.9375 47.8125 C17.93621094 49.00141846 17.93492187 50.19033691 17.93359375 51.4152832 C17.83810645 60.16848482 16.99817622 68.25424879 14.625 76.6875 C16.23375 77.2753125 16.23375 77.2753125 17.875 77.875 C19.45844307 78.47887899 21.04176321 79.08308039 22.625 79.6875 C23.53121094 80.01621094 24.43742188 80.34492187 25.37109375 80.68359375 C47.38040282 89.13072565 61.05864487 105.76227654 70.72900391 126.66796875 C79.69757223 146.88268188 84.6142926 169.07679538 76.62890625 190.33984375 C71.19288422 202.5473811 61.56630319 208.77769311 49.625 213.6875 C47.3038103 214.42720099 44.98228331 215.06668875 42.625 215.6875 C43.429375 216.63625 44.23375 217.585 45.0625 218.5625 C45.61421875 219.21347656 46.1659375 219.86445313 46.734375 220.53515625 C47.99790923 221.97360121 49.30116021 223.37807448 50.640625 224.74609375 C62.75639489 237.31947365 70.00608768 252.01005322 74.625 268.6875 C74.89679077 269.64958374 74.89679077 269.64958374 75.17407227 270.63110352 C77.45546797 281.03510788 77.21249396 295.49010826 71.625 304.6875 C64.04237441 315.32330669 54.29529644 320.43294953 41.625 322.6875 C19.46204206 324.14109756 3.74478167 320.16202088 -15.1472168 308.90844727 C-24.47470674 303.38332326 -34.04134063 298.29480691 -43.59619141 293.17675781 C-46.11228822 291.82829615 -48.62512823 290.47401757 -51.13671875 289.1171875 C-52.48683045 288.39034869 -53.83707842 287.6637629 -55.1875 286.9375 C-56.32832031 286.32390625 -57.46914063 285.7103125 -58.64453125 285.078125 C-61.36015275 283.60980775 -61.36015275 283.60980775 -64.375 282.6875 C-64.4174585 283.29190918 -64.45991699 283.89631836 -64.50366211 284.51904297 C-65.03037886 290.84329751 -66.17859986 296.7206435 -67.9375 302.8125 C-68.19853516 303.7190332 -68.45957031 304.62556641 -68.72851562 305.55957031 C-76.41496059 331.02875801 -92.90636337 351.71877565 -116.25512695 364.59082031 C-123.89767162 368.60628645 -132.0466272 371.49771253 -140.125 374.5 C-141.04162415 374.84444153 -141.95824829 375.18888306 -142.90264893 375.54376221 C-184.20734433 391.05970762 -226.46792051 402.55027607 -269.375 412.6875 C-267.40768921 412.75481323 -267.40768921 412.75481323 -265.40063477 412.82348633 C-133.20123785 417.4274303 -133.20123785 417.4274303 -103.4375 442.125 C-100.93582047 445.23314729 -100.13460009 446.68083475 -100.375 450.6875 C-103.81473996 457.15134467 -109.84635632 460.06112938 -116.375 462.6875 C-118.08429688 463.37779297 -118.08429688 463.37779297 -119.828125 464.08203125 C-135.4029283 469.94431454 -152.06797015 472.64040519 -168.375 475.6875 C-169.49326172 475.89648926 -170.61152344 476.10547852 -171.76367188 476.32080078 C-252.04411674 490.94166574 -339.47792639 490.80801913 -449.375 461.6875 C-452.9426892 459.15161732 -456.38875819 456.65998362 -458.375 452.6875 C-458.78427091 449.08591601 -458.51854415 447.00068724 -457 443.6875 C-446.52652298 431.71781198 -427.30259789 428.06208995 -412.375 424.6875 C-414.80038259 423.4748087 -416.86339245 423.25979502 -419.5546875 422.890625 C-433.40172814 420.92085832 -446.93648301 418.606928 -460.375 414.6875 C-461.36371094 414.40519531 -462.35242188 414.12289063 -463.37109375 413.83203125 C-488.41994675 405.29538215 -501.22489127 377.36482558 -512.375 355.6875 C-516.58876573 359.6106612 -519.76665598 363.83070919 -522.9375 368.625 C-523.45344727 369.40278809 -523.96939453 370.18057617 -524.50097656 370.98193359 C-532.03691615 382.55058222 -538.56463139 394.76951469 -544.54443359 407.20703125 C-554.70854098 428.27275406 -571.05540701 447.72670882 -593.4375 456.1875 C-608.28193146 461.12801956 -625.13359781 460.06045669 -639.2109375 453.33203125 C-648.66019843 448.03987761 -655.52629458 440.86269108 -659.125 430.53515625 C-664.65458972 409.29999574 -654.97042447 388.25798022 -644.5234375 370.24609375 C-642.58515534 366.97999113 -640.51265622 363.82627576 -638.375 360.6875 C-639.31601562 360.24019531 -640.25703125 359.79289062 -641.2265625 359.33203125 C-642.48458875 358.72179463 -643.74238929 358.11109253 -645 357.5 C-645.61746094 357.20802734 -646.23492188 356.91605469 -646.87109375 356.61523438 C-653.4482403 353.39589422 -658.20818166 349.58338745 -662.125 343.25 C-662.69734375 342.34378906 -663.2696875 341.43757813 -663.859375 340.50390625 C-668.73072572 331.45173133 -668.75285001 320.44474045 -666.72265625 310.48828125 C-665.79065856 307.74828803 -664.69571024 305.26229711 -663.375 302.6875 C-662.88902344 301.72714844 -662.40304687 300.76679688 -661.90234375 299.77734375 C-657.62920378 291.9483048 -652.24139532 285.34473734 -646.375 278.6875 C-647.41398438 277.87667969 -648.45296875 277.06585938 -649.5234375 276.23046875 C-665.62145594 263.52099814 -680.88937339 248.92803717 -684.375 227.6875 C-685.70015908 212.61677344 -685.42648096 195.95546138 -675.375 183.6875 C-665.96650782 172.6141306 -653.76927347 165.66454479 -639.375 163.6875 C-609.14330147 162.07679475 -581.98432669 175.28145615 -559.5 194.8125 C-558.45206375 195.7639735 -557.40741661 196.71920864 -556.375 197.6875 C-556.1790625 196.77871094 -555.983125 195.86992187 -555.78125 194.93359375 C-549.33891296 167.85911698 -527.85410611 143.15515564 -504.375 128.6875 C-495.00052619 123.37658885 -485.49364779 118.77255965 -475.4375 114.875 C-474.7536322 114.60783173 -474.0697644 114.34066345 -473.36517334 114.06539917 C-450.91010717 105.33015169 -427.98655665 97.86523056 -405.128479 90.26831055 C-400.8398234 88.84268567 -396.55241566 87.41333546 -392.26515579 85.98351955 C-381.26598961 82.31543837 -370.26294269 78.65919425 -359.2567749 75.01217651 C-355.25658991 73.68661319 -351.25733011 72.35831551 -347.2588501 71.02761841 C-238.50884271 34.8558358 -238.50884271 34.8558358 -192.375 47.6875 C-191.4787793 47.935 -190.58255859 48.1825 -189.65917969 48.4375 C-165.21236185 55.43387317 -144.30573556 66.57379775 -126.375 84.6875 C-126.11396484 84.07455078 -125.85292969 83.46160156 -125.58398438 82.83007812 C-120.21291211 70.2536795 -114.76771498 57.78140279 -108.375 45.6875 C-108.03678223 45.03765137 -107.69856445 44.38780273 -107.35009766 43.71826172 C-94.90906436 19.96509298 -77.81082734 -2.51413634 -52.1875 -12.5625 C-33.78458271 -17.46994461 -14.59749079 -11.8569657 0 0 Z " fill="#010000" transform="translate(696.375,30.3125)"/>
<path d="M0 0 C2.31185045 6.46657173 4.00451963 12.94020455 5.453125 19.6484375 C5.90905272 21.71501657 6.36502778 23.78158519 6.82104492 25.84814453 C7.05471771 26.91566956 7.2883905 27.98319458 7.52914429 29.08306885 C11.06502365 45.23036603 14.60656531 61.34982711 19.06933594 77.27099609 C20.43928929 82.25813685 21.6759001 86.78496687 21 92 C19.49609375 94.16015625 19.49609375 94.16015625 17.4375 96.0625 C7.16217992 106.72109134 3.51032076 119.73389106 3.75390625 134.19140625 C4.6575997 148.17713823 10.4874957 161.57499615 21 171 C27.62910368 175.94240866 35.15458751 180.52960365 43.2487793 182.56567383 C49.18652226 184.08454194 49.18652226 184.08454194 51.34375 186.51220703 C52.43269477 188.44571466 53.32229576 190.39412057 54.1875 192.4375 C65.30320697 215.80963644 83.85468766 238.9948017 102.0234375 257.421875 C103 259 103 259 102.76069641 260.96737671 C101.42792842 264.52860721 97.77672215 265.67219689 94.54296875 267.2890625 C93.78058395 267.68026276 93.01819916 268.07146301 92.23271179 268.47451782 C84.11318648 272.56985938 75.76219244 276.02919283 67.3125 279.375 C65.68767951 280.02490354 64.06292487 280.67497174 62.43823242 281.32519531 C31.56900812 293.63099587 -0.02792669 305.67072705 -32.41601562 313.37695312 C-35.47709459 314.11503641 -38.52651806 314.89557386 -41.578125 315.671875 C-95.85240211 329.20127352 -185.3174977 343.9325747 -236.5625 314.75 C-238.2890625 313.484375 -238.2890625 313.484375 -240 312 C-241.06347656 311.07960938 -241.06347656 311.07960938 -242.1484375 310.140625 C-264.11144016 289.60184436 -276.76934888 256.53077285 -287 229 C-287.36754395 228.01273926 -287.73508789 227.02547852 -288.11376953 226.00830078 C-293.98394663 209.98300988 -297.81742094 193.74977776 -301 177 C-301.30164063 175.4219458 -301.30164063 175.4219458 -301.609375 173.81201172 C-311.20047174 122.94841676 -311.20047174 122.94841676 -297 102 C-270.01995728 66.25029433 -225.13108865 55.24762808 -184.1875 42.3125 C-182.28018016 41.7078012 -180.37287245 41.10306413 -178.46557617 40.49829102 C-165.5978001 36.42448161 -152.7123591 32.40848619 -139.8125 28.4375 C-139.02845795 28.19601227 -138.24441589 27.95452454 -137.43661499 27.70571899 C-128.61701756 24.99231055 -119.78293378 22.33588247 -110.92636108 19.74569702 C-106.11779838 18.33691002 -101.32910175 16.87272681 -96.54711914 15.37597656 C-64.55411952 5.40304413 -33.54530378 -0.5551498 0 0 Z " fill="#EB6400" transform="translate(474,102)"/>
<path d="M0 0 C0.01458252 0.9480249 0.02916504 1.8960498 0.04418945 2.87280273 C1.58184549 96.0930151 25.0399031 173.76189811 102.8828125 273.34375 C103.25148438 273.8903125 103.62015625 274.436875 104 275 C103.67 275.99 103.34 276.98 103 278 C100.37570156 278.31950678 97.75077159 278.6305068 95.125 278.9375 C94.41730469 279.02451172 93.70960938 279.11152344 92.98046875 279.20117188 C78.38410821 280.88536732 63.67970403 281.2083928 49 281.1875 C48.20284576 281.18689575 47.40569153 281.1862915 46.5843811 281.18566895 C-27.51806651 281.03455417 -27.51806651 281.03455417 -46 265 C-47.06347656 264.07960938 -47.06347656 264.07960938 -48.1484375 263.140625 C-70.11144016 242.60184436 -82.76934888 209.53077285 -93 182 C-93.36754395 181.01273926 -93.73508789 180.02547852 -94.11376953 179.00830078 C-99.98394663 162.98300988 -103.81742094 146.74977776 -107 130 C-107.30164063 128.4219458 -107.30164063 128.4219458 -107.609375 126.81201172 C-117.20047174 75.94841676 -117.20047174 75.94841676 -103 55 C-80.31203396 24.93747873 -47.40399667 14.4959312 -13.09277344 2.72460938 C-11.29673146 2.10274136 -9.51053666 1.45256001 -7.7265625 0.796875 C-4.9822939 -0.00517485 -2.83616988 -0.06063495 0 0 Z " fill="#FEFD00" transform="translate(280,149)"/>
<path d="M0 0 C2.31185045 6.46657173 4.00451963 12.94020455 5.453125 19.6484375 C5.90905272 21.71501657 6.36502778 23.78158519 6.82104492 25.84814453 C7.05471771 26.91566956 7.2883905 27.98319458 7.52914429 29.08306885 C11.06502365 45.23036603 14.60656531 61.34982711 19.06933594 77.27099609 C20.43928929 82.25813685 21.6759001 86.78496687 21 92 C19.49609375 94.16015625 19.49609375 94.16015625 17.4375 96.0625 C7.16217992 106.72109134 3.51032076 119.73389106 3.75390625 134.19140625 C4.6575997 148.17713823 10.4874957 161.57499615 21 171 C27.62910368 175.94240866 35.15458751 180.52960365 43.2487793 182.56567383 C49.18652226 184.08454194 49.18652226 184.08454194 51.34375 186.51220703 C52.43269477 188.44571466 53.32229576 190.39412057 54.1875 192.4375 C65.30320697 215.80963644 83.85468766 238.9948017 102.0234375 257.421875 C103 259 103 259 102.76069641 260.96737671 C101.42792842 264.52860721 97.77672215 265.67219689 94.54296875 267.2890625 C93.39939156 267.87586288 93.39939156 267.87586288 92.23271179 268.47451782 C84.11300258 272.56995213 75.76174085 276.02766722 67.3125 279.375 C65.70742053 280.01822633 64.10244175 280.66170394 62.49755859 281.30541992 C24.80405554 296.35782208 24.80405554 296.35782208 11 300 C6.16869793 294.89879279 1.6804461 289.53396851 -2.5625 283.9375 C-3.2428833 283.09034424 -3.2428833 283.09034424 -3.93701172 282.22607422 C-6.30436008 279.02015559 -7.29975636 276.77856287 -6.83984375 272.87890625 C-6.38422787 270.77459661 -5.92591055 268.67083118 -5.453125 266.5703125 C-2.84047913 251.75030403 -5.22601991 236.86727739 -13 224 C-15.21927808 220.89947012 -17.55103783 217.92181654 -20 215 C-26.52678692 215.55943888 -31.35032606 218.73446659 -36.8984375 221.9375 C-37.62546875 222.34226562 -38.3525 222.74703125 -39.1015625 223.1640625 C-39.75463379 223.53998535 -40.40770508 223.9159082 -41.08056641 224.30322266 C-43.57233077 225.20776291 -44.59525581 225.11793459 -47 224 C-48.62475586 221.97241211 -48.62475586 221.97241211 -50.21484375 219.27734375 C-50.81192139 218.27638672 -51.40899902 217.27542969 -52.02416992 216.24414062 C-52.65556885 215.15294922 -53.28696777 214.06175781 -53.9375 212.9375 C-54.59919189 211.81150391 -55.26088379 210.68550781 -55.94262695 209.52539062 C-71.45587323 183.02589024 -85.40870611 155.93135608 -95.89794922 127.03369141 C-96.60322074 125.09224171 -97.31754947 123.15404344 -98.04345703 121.22021484 C-105.96605675 100.08157975 -108.3529533 79.51972267 -108.375 57.0625 C-108.37708466 56.20112427 -108.37916931 55.33974854 -108.38131714 54.45227051 C-108.37804392 42.51098436 -107.5541124 30.83825894 -106 19 C-102.08671111 17.27397075 -98.31156068 15.67463607 -94.171875 14.5703125 C-93.29934082 14.33481689 -92.42680664 14.09932129 -91.52783203 13.85668945 C-90.61114746 13.61523193 -89.69446289 13.37377441 -88.75 13.125 C-87.78562012 12.8674292 -86.82124023 12.6098584 -85.82763672 12.34448242 C-83.84432562 11.81554523 -81.86043697 11.28876891 -79.87597656 10.76416016 C-77.21332078 10.05668031 -74.55533888 9.33420989 -71.8984375 8.60546875 C-47.94361469 2.07872474 -24.82297893 -0.41080182 0 0 Z " fill="#FEFE00" transform="translate(474,102)"/>
<path d="M0 0 C3.77454966 1.84687445 6.82746924 4.262617 10 7 C10.79792969 7.68707031 11.59585938 8.37414063 12.41796875 9.08203125 C19.3510037 15.527315 25.51998315 23.78858408 26.16796875 33.5234375 C26.24867506 45.30655938 24.65535521 56.23727739 20.67700195 67.31933594 C18.84198167 72.63040696 17.96561398 77.73503854 19.69921875 83.20703125 C22.04746761 87.02177545 23.98811032 89.07066126 28 91 C31.13830246 91.42859581 31.13830246 91.42859581 34.5 91.4375 C51.67391658 92.3546411 64.38895181 99.64055052 75.90625 112.0546875 C87.33549435 125.82173183 96.85282231 146.52882774 96.30859375 164.6484375 C95.05131073 174.22925241 90.59000144 181.39502084 83.2265625 187.4609375 C72.95872583 194.60943139 60.10948622 195.81858671 48 197 C47.06619039 201.53140653 47.06619039 201.53140653 48 206 C49.85281566 207.46853126 49.85281566 207.46853126 52.125 208.8125 C66.93852282 218.44712193 74.73577149 231.80424954 81 248 C81.32613281 248.80824219 81.65226563 249.61648438 81.98828125 250.44921875 C85.60035933 260.17404434 89.20885081 273.0749425 85 283 C81.24398577 288.57344046 75.37835795 290.65604075 69 292 C56.10143279 293.22401717 43.97476107 292.20142061 32.625 285.6875 C24.63034709 281.28999309 16.48360197 277.35865832 8.1875 273.5625 C-0.83835055 269.42076505 -9.80727319 265.19638006 -18.6875 260.75 C-19.61989502 260.28408447 -20.55229004 259.81816895 -21.51293945 259.33813477 C-27.86345471 256.13654529 -27.86345471 256.13654529 -29 255 C-29.3288073 252.20812709 -29.6138752 249.42328489 -29.875 246.625 C-30.51672075 240.22487976 -31.46778689 234.223189 -33.4140625 228.06640625 C-34 226 -34 226 -34 223 C-20.43087018 223.34050514 -7.12491318 224.87508682 3 235 C6.04182893 235.25005386 6.04182893 235.25005386 9 235 C10.22173484 233.9707534 10.22173484 233.9707534 10.375 231.8125 C9.7156332 226.86724898 6.53873721 224.26868461 2.86328125 221.23828125 C-9.26372514 212.23578537 -24.15195844 207.90115769 -39 206 C-42.17586652 195.51513571 -45.31847226 185.0203355 -48.375 174.5 C-48.63748535 173.61094971 -48.8999707 172.72189941 -49.17041016 171.8059082 C-49.53078369 170.55620239 -49.53078369 170.55620239 -49.8984375 169.28125 C-50.11161621 168.54970703 -50.32479492 167.81816406 -50.54443359 167.06445312 C-51 165 -51 165 -51 161 C-49.83984375 160.64808594 -48.6796875 160.29617187 -47.484375 159.93359375 C-37.88333672 156.93474966 -29.34842537 153.73293768 -21 148 C-20.3503125 147.56429687 -19.700625 147.12859375 -19.03125 146.6796875 C-9.65981212 139.5659142 -3.8204915 127.81705424 0 117 C0.55494141 115.46279297 0.55494141 115.46279297 1.12109375 113.89453125 C2.15416707 110.49227645 2.14142887 107.53572163 2 104 C-0.64 104 -3.28 104 -6 104 C-6.23783203 104.92619141 -6.23783203 104.92619141 -6.48046875 105.87109375 C-10.13662018 119.14231744 -17.58478169 130.32278725 -29.46875 137.6875 C-38.8333388 142.54321271 -47.51984762 145.1776297 -58 145 C-58.27150879 144.30551758 -58.54301758 143.61103516 -58.82275391 142.89550781 C-60.08442732 139.67805374 -61.35466949 136.46404538 -62.625 133.25 C-63.05167969 132.15816406 -63.47835937 131.06632813 -63.91796875 129.94140625 C-66.55569047 123.28804849 -69.45556438 116.89016227 -72.77880859 110.54980469 C-75.89325991 104.04693993 -76.0744969 96.84360446 -74.14208984 89.93115234 C-72.92141447 86.63343036 -71.58864604 83.4126647 -70.1875 80.1875 C-69.69121094 79.0133252 -69.19492187 77.83915039 -68.68359375 76.62939453 C-59.37079457 54.89659014 -48.86708051 33.74762339 -33 16 C-32.34515625 15.26265625 -31.6903125 14.5253125 -31.015625 13.765625 C-23.09429248 5.3373272 -12.03263766 -2.24515688 0 0 Z " fill="#EB6400" transform="translate(663,40)"/>
<path d="M0 0 C16.66724089 1.27956784 31.69778448 5.30818359 47 12 C47.97525635 12.42369873 47.97525635 12.42369873 48.97021484 12.85595703 C90.65450056 31.32832504 111.29029299 85.16454375 126.66015625 124.796875 C131.0783119 136.40570972 135.13617438 148.1333283 139 159.9375 C139.37406982 161.06800781 139.74813965 162.19851563 140.13354492 163.36328125 C146.47348053 183.14822738 147.94423299 202.47914552 138.4375 221.4375 C129.85502078 236.22675971 117.32012481 250.33986985 104 261 C93.15591132 250.38828465 84.05137194 238.13622727 75 226 C74.43958008 225.24992676 73.87916016 224.49985352 73.30175781 223.72705078 C67.53155851 215.96992759 61.91731035 208.16805812 56.9375 199.875 C56.56560547 199.25761963 56.19371094 198.64023926 55.81054688 198.00415039 C53.94989386 194.84372556 52.49775825 191.75175244 51.25 188.3125 C49.94875872 185.54959042 49.14449813 185.06080877 46.26171875 183.84765625 C44.00001823 183.18588959 41.72690578 182.56219545 39.4453125 181.97265625 C26.51057959 178.32101396 16.25162054 169.24594445 9.46875 157.83984375 C2.81553209 144.97577614 0.58654155 130.4152586 4.5625 116.3125 C7.32972391 108.3726208 11.0863958 100.36295482 17.4375 94.6875 C20.29068593 92.24600029 20.29068593 92.24600029 20.30664062 88.94970703 C19.93388921 84.14845516 18.88487483 79.76217832 17.65625 75.1171875 C17.41122742 74.16067291 17.16620483 73.20415833 16.91375732 72.21865845 C16.38800925 70.16650433 15.85891459 68.11520519 15.32678223 66.06469727 C10.97570865 49.27840573 6.85180008 32.46352288 3.25 15.5 C3.07992432 14.69947205 2.90984863 13.89894409 2.73461914 13.07415771 C1.81181441 8.7184154 0.90021683 4.36047576 0 0 Z " fill="#EA6301" transform="translate(474,102)"/>
<path d="M0 0 C0.60634277 0.31984863 1.21268555 0.63969727 1.83740234 0.96923828 C9.76708979 5.18920727 16.98328753 9.96959278 24.11547852 15.4074707 C26.73654579 17.39945343 28.85178547 18.95059516 32 20 C32.82788086 22.35400391 32.82788086 22.35400391 33.46484375 25.4765625 C33.7057373 26.61617432 33.94663086 27.75578613 34.19482422 28.92993164 C34.56244873 30.75899048 34.56244873 30.75899048 34.9375 32.625 C35.45715962 35.09557414 35.97928124 37.56563174 36.50390625 40.03515625 C36.75672363 41.23285645 37.00954102 42.43055664 37.27001953 43.66455078 C38.4356348 48.99051593 39.85770002 54.22671593 41.3359375 59.47265625 C42 62 42 62 42 64 C25.44091453 64.6261839 11.84129662 61.28063608 -3 54 C-3.33 53.67 -3.66 53.34 -4 53 C-6.5 52.83333333 -6.5 52.83333333 -9 53 C-10.30952763 54.10412616 -10.30952763 54.10412616 -10.34765625 56.84765625 C-10.32609165 60.06629909 -10.32609165 60.06629909 -8.12109375 61.87109375 C9.56924328 72.19689455 26.31733717 78.45643462 47 79 C47.48473678 80.68590842 47.96248926 82.37382545 48.4375 84.0625 C48.70433594 85.00222656 48.97117187 85.94195312 49.24609375 86.91015625 C50.06303799 90.25835776 50.56067706 93.58351775 51 97 C49.71029297 97.69222656 49.71029297 97.69222656 48.39453125 98.3984375 C38.82766818 103.63853748 29.42915766 109.43842386 21.7578125 117.296875 C20 119 20 119 18 119 C17.74347656 119.58007812 17.48695313 120.16015625 17.22265625 120.7578125 C15.89257558 123.19700198 14.35960695 124.87665081 12.4375 126.875 C9.50537342 130.14920802 7.89107468 132.42513674 8 137 C8.66 137.66 9.32 138.32 10 139 C13.30261205 138.86789552 14.73440928 138.23566501 17.21875 136.03125 C17.9715625 135.1959375 18.724375 134.360625 19.5 133.5 C27.24899088 125.46485732 36.35274225 119.73284314 46.0625 114.375 C46.69373779 114.01970215 47.32497559 113.6644043 47.9753418 113.29833984 C52.35269448 110.97060151 52.35269448 110.97060151 55.0534668 111.09326172 C57.95691884 112.44575399 58.27093703 114.21191472 59.359375 117.171875 C59.75253906 118.22890625 60.14570313 119.2859375 60.55078125 120.375 C60.94652344 121.48875 61.34226563 122.6025 61.75 123.75 C62.16121094 124.84828125 62.57242188 125.9465625 62.99609375 127.078125 C66.43215164 136.48447616 66.43215164 136.48447616 66 141 C64.34765625 143.0703125 64.34765625 143.0703125 62.0625 145.125 C56.85748891 150.0620464 52.39800627 155.33819883 48 161 C47.56929199 161.55429687 47.13858398 162.10859375 46.69482422 162.6796875 C38.41123476 173.42596572 31.45879205 184.78264257 24.984375 196.6953125 C15.1830628 214.50501394 2.3042723 231.0982113 -17.40234375 238.34375 C-27.09992079 240.7936642 -36.75111605 238.91604664 -45.375 234.125 C-49.80165277 230.54151918 -52.59844496 227.25818709 -53.30859375 221.49609375 C-54.15359848 201.44643595 -42.70697992 181.76743061 -31.8125 165.625 C-29.75092781 162.4880404 -28.99564439 160.97584617 -28.3125 157.1875 C-29.42881886 152.01183983 -31.61965096 148.92023269 -36 146 C-38.21871945 145.51227641 -40.4502765 145.08173506 -42.6875 144.6875 C-50.32869636 143.10411807 -55.80719062 140.84953506 -61 134.9375 C-64.16457563 129.90885927 -64.02442518 124.70173491 -63 119 C-58.13177886 104.5598035 -47.14725615 94.40729037 -35.86328125 84.70703125 C-33.24440034 82.307763 -33.03180171 81.28091511 -32.625 77.6875 C-33.1037046 72.98023807 -34.51558687 72.0838504 -38 69 C-39.80128827 67.74439612 -41.63688497 66.53688767 -43.5 65.375 C-58.16848607 55.74654794 -72.75273518 43.31800024 -76.68359375 25.328125 C-77.92932824 16.16197989 -77.81897559 7.11288171 -72.81640625 -0.89453125 C-54.23247987 -25.05890011 -21.65364046 -11.53111252 0 0 Z " fill="#EA6400" transform="translate(111,229)"/>
<path d="M0 0 C10.59535764 8.6264885 17.5982845 21.11661824 19.02807617 34.67700195 C19.9591946 50.47503524 17.29682017 64.0118815 6.7890625 76.41015625 C6.19351563 77.1165625 5.59796875 77.82296875 4.984375 78.55078125 C-3.71663432 88.00996981 -15.7172893 94.20729732 -28.61328125 94.84375 C-30.45818626 94.86708243 -32.30349678 94.8679693 -34.1484375 94.84765625 C-35.11555664 94.84008301 -36.08267578 94.83250977 -37.07910156 94.82470703 C-44.10978064 94.66216855 -49.96509589 93.81890371 -56.2109375 90.41015625 C-57.05398438 89.97445312 -57.89703125 89.53875 -58.765625 89.08984375 C-72.11541107 81.66427885 -80.47319919 71.41730853 -85.484375 57.015625 C-89.66899412 42.00949084 -87.35231379 27.59495208 -79.9609375 14.09765625 C-72.67158795 2.3947132 -61.61171006 -6.12360785 -48.30859375 -10.1171875 C-30.86343804 -14.04803264 -14.50196363 -10.42809045 0 0 Z " fill="#381C08" transform="translate(564.2109375,191.58984375)"/>
<path d="M0 0 C11.65254082 7.76235718 20.53768898 19.82162305 23.52734375 33.68359375 C24.95070938 51.09369768 23.27194003 64.501882 12.52734375 78.68359375 C11.78484375 79.71484375 11.04234375 80.74609375 10.27734375 81.80859375 C1.52905163 90.95453551 -10.60021843 97.60863944 -23.38671875 97.921875 C-43.01993714 98.30326934 -43.01993714 98.30326934 -51.47265625 93.68359375 C-52.32730469 93.23628906 -53.18195313 92.78898437 -54.0625 92.328125 C-68.73839401 84.09638294 -76.36315068 72.60329294 -81.47265625 56.68359375 C-84.69196887 43.53806722 -82.27324021 29.61017156 -75.41796875 18.02734375 C-71.32116143 11.62619496 -66.61103626 6.17267165 -60.47265625 1.68359375 C-59.90675781 1.23757813 -59.34085938 0.7915625 -58.7578125 0.33203125 C-41.13095435 -12.24205137 -18.03459193 -10.61948805 0 0 Z " fill="#381C08" transform="translate(276.47265625,265.31640625)"/>
<path d="M0 0 C12.08267925 12.60900808 15.66899164 27.34926511 15.3125 44.19921875 C14.51361862 61.01234306 6.05400474 74.76823297 -6 86 C-19.7034346 96.34495289 -35.31175735 98.2869479 -52 97 C-68.91263595 93.93928512 -81.23066912 83.50096786 -91.0546875 69.89453125 C-95.18109493 63.75463586 -98.79179921 57.14672361 -99.09765625 49.5859375 C-97.26143743 45.2600412 -93.25005706 44.18330924 -89.125 42.3125 C-87.48020777 41.54108439 -85.83706189 40.76615172 -84.1953125 39.98828125 C-82.78016357 39.31889526 -82.78016357 39.31889526 -81.33642578 38.63598633 C-77.26385181 36.63903636 -73.25767184 34.52977345 -69.25 32.40625 C-62.068296 28.60152309 -54.85810971 24.85880312 -47.6171875 21.16796875 C-46.65531525 20.67754593 -45.69344299 20.18712311 -44.7024231 19.68183899 C-40.75620091 17.67114757 -36.80891451 15.66255259 -32.86132812 13.65454102 C-29.9250805 12.16038833 -26.98984643 10.66425869 -24.0546875 9.16796875 C-23.17642303 8.7220488 -22.29815857 8.27612885 -21.39328003 7.81669617 C-20.55435211 7.38887344 -19.71542419 6.96105072 -18.85107422 6.52026367 C-18.04265076 6.10932465 -17.23422729 5.69838562 -16.40130615 5.2749939 C-14.76062565 4.40386065 -13.14372076 3.48681917 -11.550354 2.53189087 C-10.76948425 2.06415253 -9.9886145 1.59641418 -9.18408203 1.11450195 C-8.49750519 0.68547073 -7.81092834 0.25643951 -7.10354614 -0.18559265 C-4.34214737 -1.25469373 -2.78689684 -0.90253066 0 0 Z " fill="#010100" transform="translate(455,317)"/>
<path d="M0 0 C3.77454966 1.84687445 6.82746924 4.262617 10 7 C10.79792969 7.68707031 11.59585938 8.37414063 12.41796875 9.08203125 C19.3510037 15.527315 25.51998315 23.78858408 26.16796875 33.5234375 C26.24867506 45.30655938 24.65535521 56.23727739 20.67700195 67.31933594 C18.84198167 72.63040696 17.96561398 77.73503854 19.69921875 83.20703125 C22.04746761 87.02177545 23.98811032 89.07066126 28 91 C31.13830246 91.42859581 31.13830246 91.42859581 34.5 91.4375 C51.67391658 92.3546411 64.38895181 99.64055052 75.90625 112.0546875 C87.33549435 125.82173183 96.85282231 146.52882774 96.30859375 164.6484375 C95.05131073 174.22925241 90.59000144 181.39502084 83.2265625 187.4609375 C72.95872583 194.60943139 60.10948622 195.81858671 48 197 C47.06619039 201.53140653 47.06619039 201.53140653 48 206 C49.85281566 207.46853126 49.85281566 207.46853126 52.125 208.8125 C66.93852282 218.44712193 74.73577149 231.80424954 81 248 C81.32613281 248.80824219 81.65226563 249.61648438 81.98828125 250.44921875 C85.60035933 260.17404434 89.20885081 273.0749425 85 283 C81.24398577 288.57344046 75.37835795 290.65604075 69 292 C55.30833037 293.29927909 43.23876835 291.79765338 31.1875 285 C29.55713632 284.10208137 27.92565822 283.20618266 26.29296875 282.3125 C25.17414307 281.69761719 25.17414307 281.69761719 24.03271484 281.0703125 C21.7476484 279.86712594 19.43211713 278.86826088 17 278 C20.19302412 274.80697588 23.09736024 274.86731381 27.41015625 274.7890625 C28.48330078 274.76070313 29.55644531 274.73234375 30.66210938 274.703125 C32.90153925 274.65167342 35.14114266 274.60722366 37.38085938 274.5703125 C45.63473272 274.33434709 55.43756245 273.59737321 62 268 C66.63480107 261.94263623 66.97030773 255.36187608 66 248 C62.16160418 231.31040048 51.87603252 215.18964308 42.7578125 200.8828125 C39.83678499 196.09232739 37.40843297 191.06318295 35 186 C36.33333333 185.33333333 37.66666667 184.66666667 39 184 C39.90105469 183.54753906 40.80210937 183.09507812 41.73046875 182.62890625 C44.1651595 181.41592412 46.60470438 180.21690955 49.05078125 179.02734375 C49.75396484 178.68251953 50.45714844 178.33769531 51.18164062 177.98242188 C52.57768619 177.29783491 53.9760563 176.61796343 55.37695312 175.94335938 C62.42353842 172.47203269 66.39256491 168.96608155 70 162 C70.35964844 161.36964844 70.71929688 160.73929688 71.08984375 160.08984375 C74.20914247 152.92750548 71.700105 144.28850915 69.3203125 137.265625 C63.91124652 123.88698842 54.79801803 111.99217558 42 105 C36.76455729 102.78256128 31.39727684 101.05985871 25.97314453 99.36767578 C24.60346535 98.93942816 23.23503454 98.50716612 21.86791992 98.07080078 C19.97615788 97.46964548 18.07805877 96.88854015 16.1796875 96.30859375 C12.1058215 94.63200271 9.97462475 92.83322793 7.90893555 88.94775391 C6.63873446 84.82838568 6.74115177 80.96185565 6.76171875 76.67578125 C6.74629228 74.82356044 6.72998816 72.97134677 6.71289062 71.11914062 C6.6964927 68.22062324 6.68747516 65.32263189 6.69458008 62.42407227 C7.19989014 47.31365719 7.19989014 47.31365719 1 34 C-6.98116243 26.75924249 -18.32796101 25.5617505 -28.625 24.8125 C-29.62917969 24.73064453 -30.63335938 24.64878906 -31.66796875 24.56445312 C-34.11138701 24.3666526 -36.55512122 24.17866669 -39 24 C-29.96843475 11.72259927 -17.0182805 -3.1754226 0 0 Z " fill="#E96400" transform="translate(663,40)"/>
<path d="M0 0 C1.67389545 3.3477909 1.07683548 7.11517772 1.02734375 10.79296875 C1.01277176 12.62776245 0.99879754 14.46256098 0.98535156 16.29736328 C0.97701294 17.25966858 0.96867432 18.22197388 0.96008301 19.21343994 C0.39063889 58.09571971 0.39063889 58.09571971 8 96 C6.7421875 97.91796875 6.7421875 97.91796875 4.875 100.1875 C-2.6553251 110.55490149 -5.53969445 123.32270271 -4 136 C-1.39629297 149.39672723 4.35704535 162.59975437 15.57421875 170.90625 C23.3729671 176.04015407 31.61320572 180.81282152 41.109375 181.31640625 C41.86347656 181.35830078 42.61757812 181.40019531 43.39453125 181.44335938 C44.17183594 181.48267578 44.94914062 181.52199219 45.75 181.5625 C46.93916016 181.62727539 46.93916016 181.62727539 48.15234375 181.69335938 C50.10137815 181.79902991 52.05066748 181.89997966 54 182 C54 182.33 54 182.66 54 183 C50.7 183 47.4 183 44 183 C56.96092403 202.78446932 70.85539198 221.85786407 86.03881836 240.00024414 C90 244.78572502 90 244.78572502 90 247 C81.68332175 246.476956 73.66101378 245.35518542 65.5 243.6875 C64.46230469 243.48705078 63.42460937 243.28660156 62.35546875 243.08007812 C43.33302165 239.2542684 31.30834604 232.41838346 20.30102539 216.13085938 C6.75994068 195.56509826 -3.44369137 173.02510238 -12 150 C-12.36754395 149.01273926 -12.73508789 148.02547852 -13.11376953 147.00830078 C-18.98394663 130.98300988 -22.81742094 114.74977776 -26 98 C-26.30164063 96.4219458 -26.30164063 96.4219458 -26.609375 94.81201172 C-36.20407376 43.92931448 -36.20407376 43.92931448 -22 23 C-15.57600275 14.5111465 -8.28221736 6.69853755 0 0 Z " fill="#EA6301" transform="translate(199,181)"/>
<path d="M0 0 C-0.56074219 0.26425781 -1.12148437 0.52851563 -1.69921875 0.80078125 C-11.74816954 6.03851961 -20.86516451 13.21830532 -25 24 C-27.84630461 33.62050958 -25.31076157 43.02492142 -20.75 51.6875 C-17.20176382 57.34333512 -12.43629096 61.76294646 -7.68066406 66.39013672 C-2.31239746 71.61950042 2.47310396 77.01281491 7 83 C8.0209375 84.3303125 8.0209375 84.3303125 9.0625 85.6875 C15.1000268 93.86737501 15.1000268 93.86737501 15 99 C11.6075997 105.52024783 5.6263105 110.3993322 0.25 115.25 C-1.27049866 116.62483745 -2.78633308 118.00485543 -4.296875 119.390625 C-5.29219238 120.2882959 -5.29219238 120.2882959 -6.30761719 121.20410156 C-9.19972645 124.27310844 -10.29971349 127.06406999 -10.375 131.25 C-10.20282613 136.25124096 -9.24970203 140.1115359 -6 144 C-3.36901807 145.95528834 -0.66086511 147.61464451 2.16796875 149.26953125 C7.24520311 152.37189652 11.69352662 156.04028993 15 161 C16.74226374 171.40045115 12.88706267 181.06727293 9.625 190.75 C8.85707308 193.08234804 8.09413495 195.4162681 7.33285522 197.75079346 C6.86146795 199.19054786 6.38543612 200.62879397 5.90371704 202.06512451 C1.27867376 215.45281634 1.27867376 215.45281634 3.3125 229 C5.30557814 231.36216668 6.96001499 232.85003961 10.0859375 233.30078125 C11.21902344 233.30658203 11.21902344 233.30658203 12.375 233.3125 C13.50035156 233.33763672 13.50035156 233.33763672 14.6484375 233.36328125 C17.62179291 232.90394229 19.45108268 231.57513003 22 230 C29.29834015 227.49151816 36.31435799 226.54090192 44 227 C36.75514167 237.80838621 27.91946257 244.85794048 16 250 C14.7625 250.56460938 14.7625 250.56460938 13.5 251.140625 C5.59487589 253.85801141 -3.46636125 252.14798476 -11 249 C-16.25245135 246.08197147 -20.06691847 242.7992446 -22 237 C-24.55165437 216.29607027 -11.97844944 195.16966898 -0.8125 178.625 C1.24907219 175.4880404 2.00435561 173.97584617 2.6875 170.1875 C1.57118114 165.01183983 -0.61965096 161.92023269 -5 159 C-7.21871945 158.51227641 -9.4502765 158.08173506 -11.6875 157.6875 C-19.32869636 156.10411807 -24.80719062 153.84953506 -30 147.9375 C-33.16457563 142.90885927 -33.02442518 137.70173491 -32 132 C-27.13177886 117.5598035 -16.14725615 107.40729037 -4.86328125 97.70703125 C-2.24440034 95.307763 -2.03180171 94.28091511 -1.625 90.6875 C-2.1037046 85.98023807 -3.51558687 85.0838504 -7 82 C-8.80128827 80.74439612 -10.63688497 79.53688767 -12.5 78.375 C-27.16848607 68.74654794 -41.75273518 56.31800024 -45.68359375 38.328125 C-46.92932824 29.16197989 -46.81897559 20.11288171 -41.81640625 12.10546875 C-31.64867909 -1.11545694 -15.40246029 -2.86557401 0 0 Z " fill="#E96300" transform="translate(80,216)"/>
<path d="M0 0 C10.76604149 0.37283328 23.08815347 1.73588418 31.79370117 8.73901367 C37.50498038 15.13427842 38.47072182 21.81342434 38.44213867 29.98510742 C38.45297485 30.89320663 38.46381104 31.80130585 38.47497559 32.73692322 C38.5205838 36.59539894 38.53230401 40.45380321 38.54711914 44.3125 C38.56285085 47.14110939 38.59585179 49.96916528 38.62963867 52.79760742 C38.62661743 53.66337906 38.62359619 54.5291507 38.6204834 55.42115784 C38.68283131 60.46410377 39.24239518 63.95280409 42.03588867 68.32495117 C46.34836352 71.82421648 51.997939 73.05558849 57.22338867 74.69995117 C76.27087012 80.92410901 89.55299028 90.08683332 98.84838867 108.38745117 C103.10416992 117.13005501 106.40556844 126.8828758 103.31323242 136.59448242 C96.26815923 151.51178316 81.282095 156.21056632 67.03588867 162.32495117 C70.49606934 169.54571405 74.08508495 176.57073493 78.28588867 183.38745117 C100.3322181 219.41344174 100.3322181 219.41344174 98.03588867 236.32495117 C96.48901297 242.15473897 93.52305052 245.25493376 88.42651367 248.31713867 C80.89875907 251.49060385 73.53730925 251.69262457 65.47338867 251.88745117 C57.19009334 252.02270698 57.19009334 252.02270698 48.97338867 252.94213867 C45.16890711 253.43793547 43.25222496 252.28613184 40.03588867 250.32495117 C41.43173659 246.95165202 42.95954478 245.28262456 46.03588867 243.32495117 C48.86263835 242.38270128 50.77986333 242.16364589 53.71948242 242.07885742 C55.10321045 242.03184692 55.10321045 242.03184692 56.51489258 241.98388672 C57.97934814 241.93615112 57.97934814 241.93615112 59.47338867 241.88745117 C73.11584829 242.15897792 73.11584829 242.15897792 85.30151367 237.55151367 C87.93058753 234.17635129 87.7133868 231.71831716 87.53198242 227.55151367 C84.96966417 210.88635719 73.51103642 194.63672987 64.59838867 180.69995117 C56.1937209 167.50750521 56.1937209 167.50750521 55.91088867 160.01245117 C58.06944517 154.85589954 62.53419764 152.37852423 67.49682617 150.29760742 C69.9470365 149.32658355 72.40826138 148.38844996 74.87182617 147.4519043 C81.61739604 144.77637779 87.75598332 141.53106807 92.03588867 135.51245117 C94.36635713 128.08408296 93.20146259 121.32253563 90.03588867 114.32495117 C87.87953996 110.20392919 85.53983051 106.24367629 83.03588867 102.32495117 C82.6465918 101.71393555 82.25729492 101.10291992 81.85620117 100.47338867 C75.00940595 91.12776308 62.85161233 87.40022887 52.28979492 84.18432617 C35.78145614 79.08021944 35.78145614 79.08021944 31.85717773 72.28344727 C28.04943568 62.94755265 28.46697615 53.48871207 28.47338867 43.57495117 C28.46976422 40.93876367 28.460101 38.30322768 28.43263245 35.66717529 C28.41601982 34.03888109 28.41282796 32.41037197 28.42564392 30.78204346 C28.37174746 24.95050208 27.50811635 19.77115541 23.18041992 15.48901367 C20.72309422 14.15516475 18.43133696 13.39704677 15.72338867 12.69995117 C14.36793945 12.34030273 14.36793945 12.34030273 12.98510742 11.97338867 C6.72164191 10.59625586 0.48317545 10.09618896 -5.90161133 9.76245117 C-6.68084961 9.71926758 -7.46008789 9.67608398 -8.26293945 9.6315918 C-10.1631825 9.5266704 -12.06362802 9.42542667 -13.96411133 9.32495117 C-10.95948212 1.00443952 -8.86980178 -0.21904703 0 0 Z " fill="#FEFB00" transform="translate(631.964111328125,63.675048828125)"/>
<path d="M0 0 C0.56847656 0.2165625 1.13695312 0.433125 1.72265625 0.65625 C-1.34353283 3.13840306 -4.45169113 4.75737392 -8.02734375 6.40625 C-15.59260545 10.15197714 -22.19995398 14.50853616 -25.65234375 22.4921875 C-27.59221939 29.2090069 -26.70843849 35.29300693 -23.57421875 41.46484375 C-19.37835347 48.55484503 -13.88861398 54.07204965 -8.02734375 59.78125 C12.31735974 79.64209581 12.31735974 79.64209581 14.15625 91.4375 C14.16486567 97.43400854 13.7848143 100.95269858 9.72265625 105.65625 C9.28695312 106.20667969 8.85125 106.75710938 8.40234375 107.32421875 C3.85719707 112.94976915 -1.54968525 117.50894437 -7.21484375 121.96875 C-9.9960238 124.24426095 -10.21587727 125.3366243 -10.90234375 128.90625 C-10.68389343 132.59774918 -10.68389343 132.59774918 -8.62109375 134.16796875 C-7.07166189 135.16364239 -5.50337033 136.13030264 -3.921875 137.07421875 C4.24334763 141.95887926 11.14798098 147.62915174 14.72265625 156.65625 C17.54390531 168.20895602 10.51024291 183.35856622 6.91650391 194.18408203 C3.95391951 203.12087956 1.59703694 211.14507398 1.72265625 220.65625 C2.44324219 220.35847656 3.16382813 220.06070313 3.90625 219.75390625 C6.51299705 218.73796184 9.10316819 217.88549609 11.78515625 217.09375 C12.62175781 216.84496094 13.45835938 216.59617187 14.3203125 216.33984375 C15.11308594 216.11425781 15.90585938 215.88867188 16.72265625 215.65625 C17.33842529 215.47916504 17.95419434 215.30208008 18.58862305 215.11962891 C20.88280985 214.62147463 22.92358915 214.54274279 25.26953125 214.55859375 C26.11386719 214.56181641 26.95820312 214.56503906 27.828125 214.56835938 C28.70082031 214.57673828 29.57351562 214.58511719 30.47265625 214.59375 C31.36082031 214.59826172 32.24898438 214.60277344 33.1640625 214.60742188 C35.35032954 214.619176 37.53645804 214.63560751 39.72265625 214.65625 C38.4833262 218.08824092 37.29460706 221.02462515 34.72265625 223.65625 C32.4453125 224.16015625 32.4453125 224.16015625 29.78515625 224.21875 C22.76289899 224.61975539 15.2435246 225.50846688 9.1484375 229.2265625 C5.37784425 231.44884451 1.97205808 231.47028304 -2.27734375 230.65625 C-5.84681895 228.719383 -7.97138843 226.57411596 -9.27734375 222.65625 C-9.89316631 215.64436136 -8.7870677 209.57287203 -6.71484375 202.90625 C-6.45106934 202.01301025 -6.18729492 201.11977051 -5.91552734 200.19946289 C-4.47536504 195.37554897 -2.93283742 190.59310745 -1.3203125 185.82421875 C4.4883183 170.94065396 4.4883183 170.94065396 2.8515625 155.703125 C-0.61755395 150.90472093 -6.19914357 147.94331248 -11.25048828 145.02661133 C-16.4804785 141.91508911 -19.35534614 138.42224283 -21.27734375 132.65625 C-21.79717416 128.18229975 -21.77854215 124.67953007 -19.77734375 120.59375 C-15.27447222 115.30287596 -10.39895864 110.56986576 -5.08984375 106.09375 C-1.40419718 102.88883994 1.31246591 99.93239415 3.72265625 95.65625 C2.92319549 82.15626483 -14.21093298 67.50949958 -23.65234375 58.46875 C-32.06270817 50.32651479 -36.9942498 41.04467937 -37.65234375 29.28125 C-37.37995187 19.97185676 -32.76521073 12.9809002 -26.27734375 6.65625 C-17.59917993 -1.50381449 -11.69214736 -4.21620005 0 0 Z " fill="#FEFA00" transform="translate(90.27734375,219.34375)"/>
<path d="M0 0 C5.80299618 6.07290298 8.00092679 10.85199653 8.1875 19.375 C7.87670916 27.35196489 6.95001223 32.63965565 1.5 38.5625 C-5.84294515 45.20611704 -11.77124461 46.49829258 -21.75 46.19140625 C-29.93271572 45.32109548 -35.18143391 41.07321725 -40.3125 34.8125 C-44.10893633 28.48510611 -45.40568976 21.9541976 -43.8515625 14.64453125 C-41.57552241 6.86582952 -37.79636421 0.9555816 -30.6875 -3.125 C-19.94711752 -8.683619 -9.82590988 -6.48880841 0 0 Z " fill="#FCFCFC" transform="translate(533.3125,205.1875)"/>
<path d="M0 0 C5.83276254 3.85182432 9.55439291 9.31328658 11.61328125 15.98828125 C13.24095131 24.45545376 11.67204621 30.7994013 7 38 C3.0106105 42.70543377 -1.79853687 46.86360623 -8 48 C-23.61613352 49.17313318 -23.61613352 49.17313318 -30 44 C-35.34782882 38.88136384 -39.60154486 34.33125911 -40.30078125 26.73046875 C-40.33244449 17.15761707 -39.96179409 10.91412266 -33.375 3.75 C-23.25576236 -5.63060715 -12.05192691 -6.34971539 0 0 Z " fill="#FCFCFC" transform="translate(247,280)"/>
<path d="M0 0 C-1.90230644 10.72209087 -6.09412146 20.52600988 -14.80859375 27.43359375 C-24.0863296 33.72453335 -33.96872625 34.97485675 -45 34 C-48.16085162 33.32637588 -51.14733189 32.54313064 -54 31 C-54.33 30.34 -54.66 29.68 -55 29 C-43.11278805 14.55428216 -27.76767726 2.98906199 -8.75 0.3125 C-5.80227963 0.06685664 -2.95333534 -0.09229173 0 0 Z " fill="#E2ACAB" transform="translate(451,361)"/>
<path d="M0 0 C4.40617281 2.16303029 7.1644597 4.41114924 9 9 C9.83617033 13.93340496 9.59268623 17.73488671 6.75 21.9375 C4.25618836 25.19330964 1.71810399 26.7006988 -2.33203125 27.40625 C-7.22941222 27.59134786 -10.23658446 27.36596151 -14.0625 24.125 C-17.46306827 20.81244644 -18.2216097 18.55554437 -18.4375 13.8125 C-18.41655993 8.5007023 -17.20033382 5.97038536 -13.5078125 2.2421875 C-9.56385025 -1.00698347 -4.8686314 -0.53846615 0 0 Z " fill="#FBFAFA" transform="translate(556,243)"/>
<path d="M0 0 C4.40830916 2.16407904 7.12843553 4.42506462 9 9 C9.53218983 14.58799317 9.25015553 18.23310522 6 23 C1.7813265 26.90999007 -1.93701208 27.73831148 -7.5234375 27.52734375 C-11.66304097 26.64588244 -14.40044667 24.26732849 -17 21 C-18.45857967 16.62426098 -18.75239657 12.56269847 -18 8 C-13.56696755 0.40246438 -8.44266596 -0.93375107 0 0 Z " fill="#FBFBFA" transform="translate(273,320)"/>
</svg>
